PathFileType	4	(X/Y/Z)	14_1_41_p0_0-203.trc
DataRate	CameraRate	NumFrames	NumMarkers	Units	OrigDataRate	OrigDataStartFrame	OrigNumFrames
57.0	57.0	7	27	m	57.0	76	204
Frame#	Time	RHip			RKnee			RAnkle			RBigToe			RSmallToe			RHeel			LHip			LKnee			LAnkle			LBigToe			LSmallToe			LHeel			Neck			Head			Nose			RShoulder			RElbow			RWrist			RThumb			RIndex			RPinky			LShoulder			LElbow			LWrist			LThumb			LIndex			LPinky			
		X1	Y1	Z1	X2	Y2	Z2	X3	Y3	Z3	X4	Y4	Z4	X5	Y5	Z5	X6	Y6	Z6	X7	Y7	Z7	X8	Y8	Z8	X9	Y9	Z9	X10	Y10	Z10	X11	Y11	Z11	X12	Y12	Z12	X13	Y13	Z13	X14	Y14	Z14	X15	Y15	Z15	X16	Y16	Z16	X17	Y17	Z17	X18	Y18	Z18	X19	Y19	Z19	X20	Y20	Z20	X21	Y21	Z21	X22	Y22	Z22	X23	Y23	Z23	X24	Y24	Z24	X25	Y25	Z25	X26	Y26	Z26	X27	Y27	Z27	
76	1.3333333333333333	0.29996574368856294	0.6932270841782882	0.2802941778908106	0.32543450025567555	0.7947570980884081	0.7084615734220141	0.3228814789258943	0.875620149696646	1.101431735198065	0.2522946770982441	0.6473020184457172	1.1502369311979834	0.3283452344707081	0.6886002887835252	1.1549121934300788	0.30262369246511367	0.9957969571799187	1.1657419038665122	0.08716918769938814	0.6912455244909689	0.2756560507527967	0.0956573639278852	0.8011036625829203	0.6882192257568704	0.09454048447251646	0.8867511826561462	1.0806467465164853	0.10198160950009051	0.6839601299809408	1.1488011499127044	0.053091492020806076	0.7580729920550255	1.1630137643842895	0.10729641663413776	0.9449219304886946	1.1402214738296446	0.20321101758359464	0.383665933982875	-0.08468830797698652	0.22933269409232887	0.18787760946950385	-0.29398243679535924	0.22287844109808955	0.16921398429855986	-0.15803782823725065	0.36024766922938906	0.40535320810910186	-0.058653103061338016	0.41203879262667187	0.5478751757847568	0.1864171221805393	0.32593549774511427	0.5158895001561695	0.3783925876353793	0.23261300645227742	0.49520820723536446	0.45272828769181633	0.24551461497169827	0.48162300749855347	0.4656479286915219	0.2842642082560754	0.5015397089494819	0.4885227110260737	0.05828051449257447	0.41869963190678117	-0.060643638803339284	0.031117628898790613	0.56716292366602	0.19610329941270174	0.04384643075582279	0.6060992099709231	0.42403201125905665	0.09242695453949203	0.6161838487918033	0.4989316997971983	0.0677437821176932	0.6302807900819716	0.5496258259612287	0.040734980157007564	0.6602392336703966	0.5478612552671085
77	1.3508771929824561	0.29989442220000073	0.6930620744974831	0.28021704161027444	0.32538086131421506	0.7915586527716264	0.6980568054504567	0.32291916754591354	0.8755257598322491	1.1013132014551064	0.2555819984562937	0.6619532869115134	1.1598198467668346	0.32812180601932567	0.6882316016110714	1.15499917359738	0.3037195439400067	0.9942480140971176	1.1602311095344726	0.08741116657317415	0.6915293062831342	0.2796052439476	0.09562191538527165	0.801148836108844	0.6883857910069329	0.09560410542604621	0.8893664603212103	1.086255937392084	0.097287930315452	0.6831633642307385	1.148832264638867	0.052887935591007	0.7585664049707224	1.1636683309924551	0.10750015037759181	0.9451452889198731	1.1403076944131683	0.2030825927527326	0.3836710218723038	-0.08446600818574973	0.2291288379734977	0.18779564032116913	-0.29430659503450524	0.2114304810216264	0.1489115892170806	-0.1559347676942489	0.35729176066504126	0.41847493933142155	-0.055979644842955575	0.41188160581146194	0.5481290710901435	0.18651946441800196	0.32324110153666125	0.5302103949748259	0.38039534254735907	0.2302193385908526	0.5128331597676616	0.45897294916321724	0.2421044719169059	0.4968295724293303	0.47624182259254916	0.2843290376020001	0.5036999117801731	0.49012699843406893	0.05826399277111634	0.4183382827860588	-0.06064147435653114	0.03164850060451571	0.5662284958186479	0.19236341648723893	0.048469145938621686	0.6064341022876722	0.4203752686907856	0.09670215670236562	0.6020788048778587	0.5002176664145581	0.07219072375010208	0.6151463871247604	0.5468734708001622	0.04103417706772397	0.6603004140924437	0.5476258930061259
78	1.368421052631579	0.300606446639747	0.6951022152715898	0.284219042892155	0.3266700145892459	0.7933514278121914	0.7060060465983755	0.32290190787340484	0.8755194850188639	1.1013275284222563	0.25554695085982787	0.6618284462787944	1.1600210146071066	0.33270896522833354	0.7019655623467315	1.1597502809920148	0.3026002414212648	0.9955598004327475	1.1657239832369175	0.08730115302820331	0.6919589281530473	0.2795762419477097	0.09555820235483113	0.8008279726116306	0.688445229051793	0.09561064957126728	0.8892882285066162	1.0862485606942	0.09725217150252492	0.6830193998881539	1.1489156904106135	0.05283926380869255	0.7583353061743859	1.163546794643786	0.10746967571390721	0.9451140957775938	1.1404792791208311	0.1997818548071805	0.3967394684886943	-0.07830516834769562	0.22575074543865012	0.19767025647335684	-0.29834832411201084	0.19768500278001613	0.15904373768028693	-0.15249266689737917	0.3599797355354366	0.40550169768244737	-0.05469009161794491	0.4054480113837696	0.5522705628370562	0.19061411409384404	0.32262207675296695	0.5309172031346225	0.38454323497108783	0.22683440515060221	0.529089968589907	0.46168877058147795	0.23958334806009346	0.5386923377067521	0.48305416869956347	0.2803450439766192	0.5187916956913174	0.5001946763510988	0.05841088924858636	0.41814736846628214	-0.06329327962956068	0.032129113246909556	0.5686411166353201	0.1966003682329135	0.0443722435724261	0.6080710182225284	0.42862735990434964	0.09303425036806542	0.6187832199229184	0.5022433834746375	0.07147514103955213	0.6439985792408988	0.5518897194675597	0.041210123638258836	0.6603317661917326	0.5479106336461007
79	1.3859649122807018	0.304706005816265	0.6942783497771624	0.2759968007073494	0.326779582026779	0.7923762241999117	0.7054023091916709	0.32291359190371244	0.8755412001633737	1.1012242274132118	0.2556618547648115	0.6616548738191854	1.1597925575222314	0.3328173219677998	0.7018128909262102	1.1596373391947958	0.3025721589703091	0.9956460012808327	1.1656482425444445	0.08788547062276182	0.6915765885170351	0.275793919660389	0.10019887974263514	0.7846476003017776	0.6886843301068598	0.09559731447772486	0.8894056450223689	1.086191193780504	0.10112219728756408	0.6676741633741262	1.143266200154263	0.05280624865697051	0.7582731036203396	1.1635224232741919	0.10335424902116724	0.9416287062738039	1.1390776900609139	0.19573116660996528	0.3962530838059803	-0.07801830948802783	0.2222352781095834	0.18809326338345625	-0.2937415374287883	0.1866277073711748	0.1592810090314448	-0.14907189906587834	0.3561258179174527	0.4049476086068897	-0.054392274147159754	0.40763083228436436	0.5371392891692863	0.18992092285274137	0.3222364705175043	0.5309670408795609	0.3848935996617234	0.22156238596836922	0.5279564328708345	0.4617951177015912	0.23875702098543214	0.5400299707295144	0.4836899265406227	0.2799534117726571	0.5197575388369926	0.5010414924113098	0.05404767645473929	0.41852496264227884	-0.06306223474538168	0.03170471881177185	0.5689864901160657	0.20019327936186543	0.04442932137544129	0.6051853630455161	0.42041310308534613	0.0932003584294419	0.6189984439000811	0.502203801297725	0.06812272039486207	0.6294978300715948	0.5495406216313796	0.04129455660374393	0.6600698853370542	0.5478972720783561
80	1.4035087719298245	0.3036097934537609	0.6936252684770521	0.27634920348077247	0.32588667793530995	0.7912884134807295	0.696543661621273	0.3229245030251126	0.8755405300311855	1.1012559039593837	0.25656385000408805	0.6609013769692983	1.1551749096953863	0.3279565829822249	0.6883389804247934	1.155095284832211	0.3026757113615702	0.995741527952232	1.1656751208379388	0.08672791256885276	0.6899471797989242	0.27539420376781987	0.10009557053660233	0.7850897005126211	0.684945530458377	0.09560135025771947	0.8893744160884183	1.0861755305731717	0.10116320414641111	0.6674666874297082	1.1430201389183219	0.0529749165264456	0.7579716202686247	1.1632372579506294	0.10735667258297378	0.9452245702036443	1.1404164867865625	0.19573411173535485	0.39659970311629256	-0.07801103384341787	0.2184106785124302	0.1888092589694471	-0.28720273935408536	0.17894323407967488	0.15908441059924838	-0.14869847414593426	0.35613402906749186	0.4045864860856712	-0.05349211856696666	0.40048207260164476	0.5398117390372817	0.19041412402256122	0.32206290507039237	0.5313295392858918	0.38513051667797815	0.22173826202748986	0.5290426106557459	0.46190942680538527	0.23578122749779667	0.5556976569092935	0.48600596947824304	0.27583914503184437	0.5356349047108214	0.5071667579676841	0.05389365009904213	0.41875120052714565	-0.06312131576467023	0.031643833971430425	0.5694938906391435	0.20025158269822466	0.044420598964776306	0.6051438531771377	0.420508468148308	0.09383005929065333	0.6183942625247748	0.4987101058685858	0.0723304604348764	0.6143988193432643	0.5468268217753922	0.04131167500332023	0.6596544651624331	0.5477699870562335
81	1.4210526315789473	0.30469502718042263	0.6941015567540113	0.2759846272924006	0.326975030934521	0.7884489164156443	0.6947200657586162	0.3229248910579005	0.8754846648412948	1.1011571666463096	0.25760013675486093	0.6618251440616014	1.154364528935914	0.33363616422382175	0.7024721475350285	1.1591863414294532	0.30282548409667187	0.99611926569065	1.1654425891821465	0.08736152881167178	0.6915886861183864	0.2796531969509297	0.104220185027429	0.7868302513449655	0.6853366320404137	0.09675595833600721	0.8881577577181108	1.0810348366889735	0.09727887573883501	0.6831577592502317	1.1484093720141388	0.05277523607822974	0.7584173756156581	1.1633880700222865	0.10896519250078272	0.9436843630566298	1.1337598016859072	0.19575693386607662	0.39703965449799555	-0.0779953772553904	0.21801404926732093	0.18860148679646868	-0.28704949098286214	0.17178581592019387	0.16944174134702744	-0.1491592368562764	0.35623472816819773	0.4047540057107704	-0.050181907772241	0.3999242425373557	0.540275449902695	0.1942981003172108	0.31765989458723926	0.5295860215893865	0.38884695679907555	0.2217098932082844	0.5286742480170935	0.4618200108427282	0.23546379797613753	0.5561446608888796	0.48617980088048646	0.26937042514632414	0.5635972432058092	0.5092298876102361	0.04989958106187719	0.43105216390788503	-0.060644479645685444	0.03166594774625089	0.5693122307657191	0.20401658499687425	0.04798032039872735	0.6077544219822093	0.42420590288344134	0.09760520278895364	0.6033805281805334	0.4966429130596001	0.07653324141888584	0.599490362601839	0.5443543400549504	0.0414813678591494	0.6591684371804674	0.5477656477774577
82	1.4385964912280702	0.30469087305686565	0.6938627570807552	0.2758166957554896	0.32882411730508265	0.7886327218146842	0.6905034356296786	0.3229728105191222	0.8754237960000824	1.1012076745630737	0.2567777983202205	0.6609620418991331	1.1550883867173212	0.32832799175613736	0.7009766394225976	1.1593931566608315	0.30275533061309884	0.9958078807357649	1.1656653107855144	0.0876215330693813	0.6911242221969754	0.2719419485527702	0.09998942266424656	0.8024988119995762	0.6885960569551515	0.09676217769014286	0.8881918124866182	1.0810780132885502	0.09732151456340653	0.6828075728877882	1.148509357970285	0.053061901295663474	0.7579903772225693	1.1630999011042933	0.10972716223805241	0.9461039614199397	1.1391680834294515	0.19152211608755984	0.38575492887134455	-0.07745509294505473	0.20753862463426917	0.18917194270335264	-0.2869223731824025	0.1684494267130293	0.17979909844388214	-0.1496729785979662	0.3562708938670718	0.40463270536891005	-0.0501063884588845	0.3994591841526087	0.5399271362258042	0.19860995752117275	0.3129391263526765	0.5176262922726228	0.387698683481281	0.21799186970468948	0.5428707792779489	0.46417722165369857	0.23252434831390398	0.5729587726161517	0.49232631873351956	0.26530936655376164	0.5787057658509278	0.5147558965870974	0.05011398083518081	0.4306864406305333	-0.06336436941262888	0.03143166103414192	0.5695477499041691	0.20022950750426724	0.04770860650753694	0.6085195435908034	0.42062652478379586	0.09660407910257456	0.6042611785213571	0.49516416616805825	0.07641791851437997	0.5988920652090777	0.5443174104252188	0.04552079405702657	0.6439889167174319	0.545633359350138
